G04 ================== begin FILE IDENTIFICATION RECORD ==================*
G04 Layout Name:  C:/DATA/git/Cadence/modules/BinSensors/allegro/BINSENSORS.brd*
G04 Film Name:    BOTTOM*
G04 File Format:  Gerber RS274X*
G04 File Origin:  Cadence Allegro 17.2-P019*
G04 Origin Date:  Tue Jun 20 09:33:12 2017*
G04 *
G04 Layer:  ETCH/BOTTOM*
G04 Layer:  PIN/BOTTOM*
G04 Layer:  VIA CLASS/BOTTOM*
G04 *
G04 Offset:    (0.0000 0.0000)*
G04 Mirror:    No*
G04 Mode:      Positive*
G04 Rotation:  0*
G04 FullContactRelief:  No*
G04 UndefLineWidth:     0.0000*
G04 ================== end FILE IDENTIFICATION RECORD ====================*
%FSLAX25Y25*MOMM*%
%IR0*IPPOS*OFA0.00000B0.00000*MIA0B0*SFA1.00000B1.00000*%
%ADD10C,.8*%
%ADD13R,2.1501X.95*%
%ADD15R,1.0201X.7399*%
%ADD12R,.7399X1.0201*%
%ADD18C,3.*%
%ADD19R,3.X3.*%
%ADD17R,.9901X.51*%
%ADD14R,2.1501X3.2499*%
%ADD11C,1.5999*%
%ADD16R,1.5999X1.5999*%
%ADD20C,.3*%
%ADD21C,2.*%
%ADD22C,1.8544*%
G75*
%LPD*%
G75*
G36*
G01X3147980Y2250000D02*
G03X3187300Y2193660I60021J-2D01*
G02X3190840Y2176810I-3509J-9534D01*
G03X3213280Y1957580I97160J-100818D01*
G02Y1940400I-5426J-8590D01*
G03X3147990Y1820850I74720J-118410D01*
G01Y1820830D01*
X3147980Y1788070D01*
X3114940Y1755020D01*
X2636110D01*
G02X2630940Y1773920I5J10159D01*
G03X2513850Y1935020I-50942J86076D01*
G01X2302290D01*
X2122290Y2115020D01*
X1648930D01*
X1438930Y1905020D01*
X658930D01*
X533750Y1779840D01*
X531890Y1779690D01*
G03X469070Y1609490I8114J-99688D01*
G02X469040Y1595140I-7209J-7160D01*
G01X404980Y1531070D01*
Y1056150D01*
G03X555020I75020J-66150D01*
G01Y1468930D01*
X579060Y1492970D01*
X3165010D01*
X3188020Y1469960D01*
X3188040Y1469950D01*
G03X3213280Y1449580I99962J98039D01*
G02Y1432400I-5426J-8590D01*
G03X3387960Y1215950I74718J-118412D01*
G01X3387980Y1215960D01*
X3410990Y1238970D01*
X3505060D01*
X3563050Y1296950D01*
G03X3577530Y1317330I-53061J53034D01*
G01X3577910Y1318100D01*
X3590020Y1330220D01*
Y1340960D01*
X3592580Y1344010D01*
G02X3607260Y1344930I7779J-6540D01*
G03X3648000Y1328980I40745J44067D01*
G01X3722000D01*
G03X3761760Y1344040I-1J60018D01*
G01X3785620Y1364980D01*
X3824980D01*
Y1139020D01*
X3773420D01*
G03X3757480Y1146770I-33927J-49513D01*
G02X3751190Y1160470I3043J9691D01*
G03X3752220Y1165500I-11767J5030D01*
G01Y1216500D01*
G03X3739500Y1229220I-12720J0D01*
G01X3640500D01*
G03X3627780Y1216500I0J-12720D01*
G01Y1165500D01*
G03X3628810Y1160470I12797J0D01*
G02X3622520Y1146770I-9333J-4009D01*
G03X3606580Y1139020I17987J-57263D01*
G01X3522930D01*
X3434980Y1051070D01*
Y1025620D01*
X3414040Y1001760D01*
G03X3398980Y962000I44958J-39761D01*
G01Y917300D01*
G02X3381990Y909770I-10164J0D01*
G03X3188040Y904040I-93994J-103772D01*
G01X3188020Y904030D01*
X3165010Y881020D01*
X2615070D01*
X2403780Y1092310D01*
X881480D01*
X773770Y1200020D01*
X756180D01*
X754760Y1201230D01*
G03X728800Y1032810I-64758J-76229D01*
G01X819340Y942270D01*
X1648710D01*
G02X1658740Y930500I-1J-10159D01*
G03X1657980Y921000I59262J-9521D01*
G01Y874420D01*
X337670D01*
X195020Y1017070D01*
Y2068930D01*
X271070Y2144980D01*
X888930D01*
X1068930Y1964980D01*
X1441070D01*
X1651070Y2174980D01*
X2002070D01*
X2069720Y2242620D01*
G03X2091020Y2230740I39275J45383D01*
G02X2097310Y2217020I-3040J-9696D01*
G03X2096280Y2212010I11688J-5014D01*
G01Y2138000D01*
G03X2109000Y2125280I12720J0D01*
G01X2211000D01*
G03X2223720Y2138000I0J12720D01*
G01Y2212000D01*
G03X2220260Y2220720I-12718J0D01*
G01X2218880Y2224200D01*
X2222950Y2229180D01*
G03X2229100Y2230770I-11928J58825D01*
G01X2230870Y2229070D01*
G03X2270620Y2212410I41545J43373D01*
G02X2274880Y2207400I-821J-5014D01*
G01Y2150670D01*
X2270550Y2150020D01*
G03X2259700Y2137440I1868J-12580D01*
G01Y2042440D01*
G03X2272420Y2029720I12720J0D01*
G01X2487440D01*
G03X2500160Y2042440I0J12720D01*
G01Y2137440D01*
G03X2489300Y2150020I-12716J0D01*
G01X2484970Y2150670D01*
Y2207400D01*
G02X2489230Y2212410I5081J-4D01*
G03X2528580Y2228680I-1784J60034D01*
G02X2544950Y2220650I6212J-8037D01*
G01Y2029910D01*
X2805050D01*
Y2105650D01*
G02X2822060Y2113150I10160J-3D01*
G03X2862500Y2097480I40442J44352D01*
G01X3077500D01*
G03X3137520Y2157500I0J60020D01*
G01Y2482500D01*
G03X3077500Y2542520I-60020J0D01*
G01X2862500D01*
G03X2822060Y2526850I2J-60022D01*
G02X2805050Y2534350I-6850J7503D01*
G01Y2610100D01*
X2546230D01*
X2545180Y2613800D01*
G03X2543770Y2618150I-57759J-16318D01*
G01X2543460Y2619000D01*
Y2624980D01*
X2843850D01*
G03X2993990Y2754300I66143J75025D01*
G02X3002520Y2769980I8533J5518D01*
G01X6099990D01*
Y2079420D01*
G02X6082620Y2072260I-10160J-2D01*
G03X6040000Y2090020I-42620J-42259D01*
G01X5740000D01*
G03X5679980Y2030000I0J-60020D01*
G01Y1896280D01*
X5563720Y1780020D01*
X4747720D01*
X4485710Y1518020D01*
G02X4468370Y1525200I-7182J7183D01*
G01Y1904980D01*
X5011070D01*
X5040000Y1933910D01*
X5068930Y1904980D01*
X5341070D01*
X5445020Y2008930D01*
Y2093800D01*
X5458660Y2119430D01*
X5459320Y2119980D01*
X5490220D01*
X5500220Y2109980D01*
X5510960D01*
X5520360Y2102070D01*
G03X5559740Y2087980I38643J45928D01*
G01X5661000D01*
G03X5721020Y2148000I0J60020D01*
G01Y2155280D01*
X5801000D01*
G03X5813720Y2168000I0J12720D01*
G01Y2242030D01*
G03X5812690Y2247030I-12720J-14D01*
G02X5818980Y2260740I9331J4017D01*
G03X5861020Y2318000I-17978J57262D01*
G01Y2392000D01*
G03X5801000Y2452020I-60020J0D01*
G01X5716940D01*
G02X5709230Y2468790I2J10158D01*
G03X5486460Y2637600I-106223J91217D01*
G02X5469540I-8460J5631D01*
G03X5254850Y2659850I-116540J-77601D01*
G02X5238360Y2663180I-7117J7250D01*
G03X5183000Y2700020I-55365J-23183D01*
G01X5023000D01*
G03X4962980Y2640000I5J-60025D01*
G01Y2480000D01*
G03X4963060Y2476980I60022J79D01*
G02X4957440Y2471670I-5074J-259D01*
G03X4950260Y2472020I-6507J-59667D01*
G01X4904420D01*
Y2476670D01*
X4816070Y2565020D01*
X4776150D01*
G03X4751320Y2398920I-66152J-75017D01*
G01X4754530Y2400370D01*
X4788980Y2365920D01*
Y2338000D01*
G03X4831020Y2280740I60018J2D01*
G02X4837310Y2267030I-3041J-9693D01*
G03X4836280Y2262030I11690J-5014D01*
G01Y2188000D01*
G03X4849000Y2175280I12720J0D01*
G01X4928980D01*
Y2168000D01*
G03X4944040Y2128240I60018J1D01*
G01X4964980Y2104380D01*
Y2071070D01*
X4948930Y2055020D01*
X4454420D01*
X4104430Y2405010D01*
X3460970D01*
X3409200Y2453630D01*
X3409190D01*
G03X3368000Y2470000I-41194J-43647D01*
G01X3208000D01*
G03X3147980Y2409980I0J-60020D01*
G01Y2250000D01*
G37*
G36*
G01X50010Y590010D02*
Y925370D01*
G02X67350Y932550I10158J-4D01*
G01X275530Y724380D01*
X1044900D01*
G02X1055050Y713830I-1J-10159D01*
G03X1254950I99950J-3830D01*
G02X1265100Y724380I10151J391D01*
G01X1657980D01*
Y669000D01*
G03X1718000Y608980I60020J0D01*
G01X1792000D01*
G03X1849260Y651020I-2J60018D01*
G02X1862970Y657310I9693J-3041D01*
G03X1868000Y656280I5014J11689D01*
G01X1942000D01*
G03X1954720Y669000I0J12720D01*
G01Y771000D01*
G03X1942000Y783720I-12720J0D01*
G01X1868000D01*
G03X1862980Y782690I-6J-12718D01*
G02X1849260Y788980I-4024J9330D01*
G03X1847010Y795000I-57264J-17972D01*
G03X1849260Y801020I-55016J23993D01*
G02X1862970Y807310I9693J-3041D01*
G03X1868000Y806280I5014J11689D01*
G01X1942000D01*
G03X1954720Y819000I0J12720D01*
G01Y921000D01*
G03X1953120Y927180I-12723J3D01*
G02X1962000Y942270I8881J4932D01*
G01X2341640D01*
X2552930Y730980D01*
X3165010D01*
X3188020Y707970D01*
X3188040Y707960D01*
G03X3189550Y706440I100084J97915D01*
G02X3185980Y697750I-3573J-3611D01*
G01X2492620D01*
G03X2316010Y605690I-92623J-37746D01*
G02X2307480Y590010I-8529J-5520D01*
G01X50010D01*
G37*
G36*
G01X1897340Y805880D02*
X1868000Y771000D01*
X1905000Y716250D01*
X1942000Y771000D01*
X1912660Y805880D01*
G03X1897340I-7660J-12890D01*
G37*
G36*
G01X1853010Y933210D02*
X1868010Y819000D01*
X1906890Y866760D01*
X1942000Y921000D01*
X1870450Y948010D01*
G03X1853010Y933210I-2440J-14800D01*
G37*
G36*
G01X1912660Y784120D02*
X1942000Y819000D01*
X1905000Y873750D01*
X1868000Y819000D01*
X1897340Y784120D01*
G03X1912660I7660J12890D01*
G37*
G36*
G01X1747340Y805880D02*
X1718000Y771000D01*
X1755000Y716250D01*
X1792000Y771000D01*
X1762660Y805880D01*
G03X1747340I-7660J-12890D01*
G37*
G36*
G01X1941560Y1755020D02*
G02X1934420Y1772410I0J10161D01*
G03X1952800Y1949220I-98421J99592D01*
G02X1961280Y1964980I8478J5600D01*
G01X2060150D01*
X2240150Y1784980D01*
X2513850D01*
G03X2529060Y1773920I66168J75007D01*
G02X2523890Y1755020I-5175J-8741D01*
G01X1941560D01*
G37*
G36*
G01X1518460Y1772360D02*
X1711070Y1964980D01*
X1725630D01*
Y1958190D01*
X1724600Y1956820D01*
G03X1737580Y1772410I111402J-84821D01*
G02X1730440Y1755020I-7140J-7229D01*
G01X1525640D01*
G02X1518460Y1772360I4J10158D01*
G37*
G36*
G01X2074120Y2167340D02*
X2109000Y2138000D01*
X2163750Y2175000D01*
X2109000Y2212000D01*
X2074120Y2182660D01*
G03Y2167340I12890J-7660D01*
G37*
G36*
G01X1901000Y2460000D02*
X1836000Y2459990D01*
X1833350Y2377350D01*
X1915990Y2380000D01*
X1916000Y2445000D01*
G03X1901000Y2460000I-15000J0D01*
G37*
G36*
G01X1724980Y2325020D02*
X1710000Y2340000D01*
Y2580000D01*
X1754980Y2624980D01*
X2460000D01*
Y2610160D01*
X2272420D01*
G03X2259700Y2597440I0J-12720D01*
G01Y2520000D01*
X2100000D01*
X1945830Y2365830D01*
G02X1928510Y2373700I-7185J7181D01*
G03X1752540Y2339610I-92507J6298D01*
G02X1743400Y2325020I-9143J-4430D01*
G01X1724980D01*
G37*
G36*
G01X2074120Y2317340D02*
X2109000Y2288000D01*
X2163750Y2325000D01*
X2109000Y2362000D01*
X2074120Y2332660D01*
G03Y2317340I12890J-7660D01*
G37*
G36*
G01X2226000Y2124000D02*
X2211000Y2212000D01*
X2157350Y2177650D01*
X2109000Y2138000D01*
X2208960Y2109140D01*
G03X2226000Y2124000I2041J14860D01*
G37*
G36*
G01X2227560Y2541470D02*
X2272420Y2502440D01*
X2383680Y2549940D01*
X2272420Y2597440D01*
X2227560Y2558410D01*
G03Y2541470I12380J-8470D01*
G37*
G36*
G01X2230930Y2312190D02*
X2272420Y2272440D01*
X2383680Y2319940D01*
X2272420Y2367440D01*
X2230930Y2327690D01*
G03Y2312190I12840J-7750D01*
G37*
G36*
G01X2245880Y2332660D02*
X2211000Y2362000D01*
X2156250Y2325000D01*
X2211000Y2288000D01*
X2245880Y2317340D01*
G03Y2332660I-12890J7660D01*
G37*
G36*
G01X3616130Y1185290D02*
X3640500Y1165500D01*
X3693750Y1191000D01*
X3640500Y1216500D01*
X3616130Y1196710D01*
G03Y1185290I13870J-5710D01*
G37*
G36*
G01X3501350Y1010250D02*
X3459000Y962000D01*
X3510000Y921250D01*
X3561000Y962000D01*
X3518650Y1010250D01*
G03X3501350I-8650J-12260D01*
G37*
G36*
G01X3616130Y1058290D02*
X3640500Y1038500D01*
X3693750Y1064000D01*
X3640500Y1089500D01*
X3616130Y1069710D01*
G03Y1058290I13870J-5710D01*
G37*
G36*
G01X3390530Y1324600D02*
X3344560Y1370550D01*
X3284250Y1313990D01*
X3344560Y1257430D01*
X3390530Y1303380D01*
G03Y1324600I-10610J10610D01*
G37*
G36*
G01X3499390Y743040D02*
X3456960Y700610D01*
X3495000Y686250D01*
X3525000D01*
X3563040Y700610D01*
X3520610Y743040D01*
G03X3499390I-10610J-10610D01*
G37*
G36*
G01X3185470Y795390D02*
X3231440Y749440D01*
X3291750Y806000D01*
X3231440Y862560D01*
X3185470Y816610D01*
G03Y795390I10610J-10610D01*
G37*
G36*
G01X3368000Y741010D02*
X3367990Y806000D01*
X3285350Y808650D01*
X3288000Y726020D01*
X3353000Y726010D01*
G03X3368000Y741010I0J15000D01*
G37*
G36*
G01X3390530Y2086600D02*
X3344560Y2132550D01*
X3284250Y2075990D01*
X3344560Y2019430D01*
X3390530Y2065380D01*
G03Y2086600I-10610J10610D01*
G37*
G36*
G01Y1832600D02*
X3344560Y1878550D01*
X3284250Y1821990D01*
X3344560Y1765430D01*
X3390530Y1811380D01*
G03Y1832600I-10610J10610D01*
G37*
G36*
G01X3223000Y1742000D02*
X3288000Y1742010D01*
X3290650Y1824640D01*
X3208010Y1821990D01*
X3208000Y1757000D01*
G03X3223000Y1742000I15000J0D01*
G37*
G36*
G01X3185470Y1557380D02*
X3231440Y1511430D01*
X3291750Y1567990D01*
X3231440Y1624550D01*
X3185470Y1578600D01*
G03Y1557380I10610J-10610D01*
G37*
G36*
G01X3522660Y1354120D02*
X3552000Y1389000D01*
X3515000Y1443750D01*
X3478000Y1389000D01*
X3507340Y1354120D01*
G03X3522660I7660J12890D01*
G37*
G36*
G01X3443250Y2339320D02*
X3368000Y2409980D01*
X3284250Y2329990D01*
X3368000Y2250000D01*
X3443250Y2320660D01*
G03Y2339320I-11750J9330D01*
G37*
G36*
G01X4255420Y1263310D02*
X4214500Y1216500D01*
X4264000Y1187250D01*
X4313500Y1216500D01*
X4272580Y1263310D01*
G03X4255420I-8580J-12310D01*
G37*
G36*
G01X4190130Y1058290D02*
X4214500Y1038500D01*
X4267750Y1064000D01*
X4214500Y1089500D01*
X4190130Y1069710D01*
G03Y1058290I13870J-5710D01*
G37*
G36*
G01X3763870Y942710D02*
X3739500Y962500D01*
X3686250Y937000D01*
X3739500Y911500D01*
X3763870Y931290D01*
G03Y942710I-13870J5710D01*
G37*
G36*
G01X4190130Y931290D02*
X4214500Y911500D01*
X4267750Y937000D01*
X4214500Y962500D01*
X4190130Y942710D01*
G03Y931290I13870J-5710D01*
G37*
G36*
G01X4272580Y864690D02*
X4313500Y911500D01*
X4264000Y940750D01*
X4214500Y911500D01*
X4255420Y864690D01*
G03X4272580I8580J12310D01*
G37*
G36*
G01X4255420Y882310D02*
X4214500Y835500D01*
X4264000Y806250D01*
X4313500Y835500D01*
X4272580Y882310D01*
G03X4255420I-8580J-12310D01*
G37*
G36*
G01X3763870Y1069710D02*
X3739500Y1089500D01*
X3686250Y1064000D01*
X3739500Y1038500D01*
X3763870Y1058290D01*
G03Y1069710I-13870J5710D01*
G37*
G36*
G01X3698580Y737700D02*
X3739500Y784500D01*
X3690000Y813750D01*
X3640500Y784500D01*
X3681420Y737700D01*
G03X3698580I8580J12310D01*
G37*
G36*
G01X4393350Y1950000D02*
X4423350Y1980000D01*
X4378350Y2010000D01*
Y1950000D01*
X4393350D01*
G37*
G36*
G01X3770250Y1448650D02*
X3722000Y1491000D01*
X3681250Y1440000D01*
X3722000Y1389000D01*
X3770250Y1431350D01*
G03Y1448650I-12260J8650D01*
G37*
G36*
G01X5131070Y2055020D02*
X5115020Y2071070D01*
Y2085020D01*
X5293820D01*
X5294980Y2083720D01*
Y2071070D01*
X5278930Y2055020D01*
X5131070D01*
G37*
G36*
G01X4814120Y2217340D02*
X4849000Y2188000D01*
X4903750Y2225000D01*
X4849000Y2262000D01*
X4814120Y2232660D01*
G03Y2217340I12890J-7660D01*
G37*
G36*
G01X5048650Y2119750D02*
X5091000Y2168000D01*
X5040000Y2208750D01*
X4989000Y2168000D01*
X5031350Y2119750D01*
G03X5048650I8650J12260D01*
G37*
G36*
G01X4985880Y2382660D02*
X4951000Y2412000D01*
X4896250Y2375000D01*
X4951000Y2338000D01*
X4985880Y2367340D01*
G03Y2382660I-12890J7660D01*
G37*
G36*
G01X4954120Y2367340D02*
X4989000Y2338000D01*
X5043750Y2375000D01*
X4989000Y2412000D01*
X4954120Y2382660D01*
G03Y2367340I12890J-7660D01*
G37*
G36*
G01X5031350Y2460250D02*
X4989000Y2412000D01*
X5040000Y2371250D01*
X5091000Y2412000D01*
X5048650Y2460250D01*
G03X5031350I-8650J-12260D01*
G37*
G36*
G01X5049000Y2404500D02*
X5124720Y2480020D01*
X5104510Y2563430D01*
X5023780Y2494780D01*
X5025310Y2413460D01*
G03X5049000Y2404500I14689J3040D01*
G37*
G36*
G01X5381200Y2102030D02*
X5411000Y2158000D01*
X5359550Y2198720D01*
X5309000Y2158000D01*
X5360970Y2100030D01*
G03X5381200Y2102030I9030J11979D01*
G37*
G36*
G01X5524120Y2177340D02*
X5559000Y2148000D01*
X5613750Y2185000D01*
X5559000Y2222000D01*
X5524120Y2192660D01*
G03Y2177340I12890J-7660D01*
G37*
G36*
G01X5445880Y2202660D02*
X5411000Y2232000D01*
X5356250Y2195000D01*
X5411000Y2158000D01*
X5445880Y2187340D01*
G03Y2202660I-12890J7660D01*
G37*
G36*
G01X5363610Y2457470D02*
X5409560Y2503440D01*
X5353000Y2563750D01*
X5296440Y2503440D01*
X5342390Y2457470D01*
G03X5363610I10610J10610D01*
G37*
G36*
G01X5352610Y2442750D02*
X5311080Y2401980D01*
X5360000Y2361250D01*
X5408920Y2401980D01*
X5367390Y2442750D01*
G03X5352610I-7390J-13050D01*
G37*
G36*
G01X5613610Y2457470D02*
X5659560Y2503440D01*
X5603000Y2563750D01*
X5546440Y2503440D01*
X5592390Y2457470D01*
G03X5613610I10610J10610D01*
G37*
G36*
G01X5664120Y2347340D02*
X5699000Y2318000D01*
X5753750Y2355000D01*
X5699000Y2392000D01*
X5664120Y2362660D01*
G03Y2347340I12890J-7660D01*
G37*
G36*
G01X5602610Y2432750D02*
X5561080Y2391980D01*
X5610000Y2351250D01*
X5658920Y2391980D01*
X5617390Y2432750D01*
G03X5602610I-7390J-13050D01*
G37*
G36*
G01X5695880Y2362660D02*
X5661000Y2392000D01*
X5606250Y2355000D01*
X5661000Y2318000D01*
X5695880Y2347340D01*
G03Y2362660I-12890J7660D01*
G37*
%LPC*%
G75*
G54D22*
X1836000Y1364000D03*
X3288000Y1059990D03*
X5853000Y2560000D03*
%LPD*%
G75*
G36*
G01X1733470Y1353390D02*
X1779440Y1307440D01*
X1839750Y1364000D01*
X1779440Y1420560D01*
X1733470Y1374610D01*
G03Y1353390I10610J-10610D01*
G37*
G36*
G01X1938530Y1374610D02*
X1892560Y1420560D01*
X1832250Y1364000D01*
X1892560Y1307440D01*
X1938530Y1353390D01*
G03Y1374610I-10610J10610D01*
G37*
G36*
G01X3390530Y1070600D02*
X3344560Y1116550D01*
X3284250Y1059990D01*
X3344560Y1003430D01*
X3390530Y1049380D01*
G03Y1070600I-10610J10610D01*
G37*
G36*
G01X3185470Y1049380D02*
X3231440Y1003430D01*
X3291750Y1059990D01*
X3231440Y1116550D01*
X3185470Y1070600D01*
G03Y1049380I10610J-10610D01*
G37*
G36*
G01X5842390Y2662530D02*
X5796440Y2616560D01*
X5853000Y2556250D01*
X5909560Y2616560D01*
X5863610Y2662530D01*
G03X5842390I-10610J-10610D01*
G37*
G54D10*
X480000Y990000D03*
X540000Y2100000D03*
X360000Y2040000D03*
Y2100000D03*
X450000D03*
Y2040000D03*
X300000Y2100000D03*
Y2040000D03*
X240000Y1980000D03*
X540000Y1860000D03*
Y2040000D03*
Y1680000D03*
X1230000Y1170000D03*
X1155000Y710000D03*
X690000Y1125000D03*
X880000Y2070000D03*
X840000Y1440000D03*
Y1680000D03*
X1350000Y2160000D03*
X2130000Y870000D03*
X2010000Y840000D03*
X1625210Y1800000D03*
X2070000Y1860000D03*
X2760000Y1320000D03*
X2190000Y660000D03*
X2880000Y1320000D03*
X2400000Y660000D03*
X2820000Y1800000D03*
X2400000Y1980000D03*
X2310000Y1470000D03*
X2580000Y1860000D03*
X2379930Y2319940D03*
X2970000Y930000D03*
X3120000D03*
X3000000Y1320000D03*
X3060000Y1800000D03*
X3120000Y1860000D03*
X2940000Y1800000D03*
X3120000Y1950000D03*
X3480000Y2430000D03*
X3540000Y2550000D03*
X3450000D03*
X3600000Y2430000D03*
X3630000Y2550000D03*
X2910000Y2700000D03*
X3930000Y870000D03*
X3840000Y1035000D03*
X3810000Y2580000D03*
X4380000Y2190000D03*
Y2730000D03*
X4320000Y2370000D03*
X4200000Y2730000D03*
X4020000D03*
X4320000Y2250000D03*
X4290000Y2730000D03*
X4110000D03*
X3720000Y2550000D03*
X3690000Y2430000D03*
X3810000D03*
X3900000D03*
X3990000D03*
X4170000Y2580000D03*
X4320000Y2610000D03*
X4770000Y2100000D03*
X4440000Y2130000D03*
X4560000Y2100000D03*
X4680000D03*
X4890000D03*
Y2730000D03*
X4560000Y2370000D03*
X4800000Y2250000D03*
X4440000Y2370000D03*
X4650000Y2730000D03*
X4470000D03*
X5130000D03*
X4680000Y2370000D03*
X4560000Y2730000D03*
X5010000D03*
X4770000D03*
X4800000Y2160000D03*
X4440000Y2610000D03*
X4590000D03*
X4710000Y2490000D03*
X5550000Y690000D03*
X5880000Y2130000D03*
X5230000Y2080000D03*
X5730000Y2730000D03*
X5850000D03*
X5610000D03*
X5250000D03*
X5490000D03*
X5370000D03*
X5970000Y2130000D03*
X6060000D03*
Y2250000D03*
Y2490000D03*
Y2640000D03*
X6030000Y2730000D03*
X6060000Y2370000D03*
G54D20*
G01X755000Y900000D02*
X360000D01*
X330000Y930000D01*
Y1830000D01*
X420000Y1920000D01*
G01X480000Y990000D02*
Y1500000D01*
X547990Y1567990D01*
X3288000D01*
G01X1140000Y799400D02*
X306600D01*
X120000Y986000D01*
Y2100000D01*
X240000Y2220000D01*
X920000D01*
X1100000Y2040000D01*
X1410000D01*
X1620000Y2250000D01*
X1971000D01*
X2046000Y2325000D01*
X2160000D01*
G01X540000Y2040000D02*
X420000Y1920000D01*
G01X540000Y2040000D02*
X570000Y2070000D01*
X880000D01*
G01X420000Y1920000D02*
X1410000D01*
G01X2580000Y1860000D02*
X2271220D01*
X2091220Y2040000D01*
X1680000D01*
X1470000Y1830000D01*
X690000D01*
X540000Y1680000D01*
G01X1905000Y870000D02*
Y896220D01*
X1835210Y966010D01*
X1699370D01*
X1603360Y870000D01*
X785000D01*
X755000Y900000D01*
G01D02*
X625000Y1030000D01*
G01D02*
Y1049000D01*
X600000Y1074000D01*
G01D02*
Y1230000D01*
X734000Y1364000D01*
G01X1755000Y855990D02*
X1698410Y799400D01*
X1140000D01*
G01X1155000Y710000D02*
Y784400D01*
X1140000Y799400D01*
G01X3288000Y806000D02*
X2584000D01*
X2372710Y1017290D01*
X850410D01*
X742700Y1125000D01*
X690000D01*
G01X734000Y1364000D02*
X1836000D01*
G01X3288000Y1821990D02*
X3146010Y1680000D01*
X840000D01*
G01X1350000Y2160000D02*
Y2550000D01*
X1500000Y2700000D01*
X2910000D01*
G01X1905000Y720000D02*
Y870000D01*
G01Y651190D02*
Y720000D01*
G01D02*
X1959800D01*
G01X1836000Y1266200D02*
Y1364000D01*
G01X1755000Y855990D02*
Y720000D01*
G01Y855990D02*
Y870000D01*
G01X1410000Y1920000D02*
X1665000Y2175000D01*
X2160000D01*
G01X2221460Y1364000D02*
X1836000D01*
G01X2970000Y1800000D02*
X2917000Y1747000D01*
X1678210D01*
X1625210Y1800000D01*
G01X1836000Y1364000D02*
Y1461800D01*
G01X2379930Y2549940D02*
X2005940D01*
G01D02*
X1836000Y2380000D01*
G01D02*
Y2477800D01*
G01X1738200Y2380000D02*
X1836000D01*
G01D02*
X1933800D01*
G01X3288000Y1059990D02*
X2870010D01*
G01D02*
X2566000Y1364000D01*
X2278540D01*
X2271840Y1357300D01*
X2228160D01*
X2221460Y1364000D01*
G01X2400000Y660000D02*
X2437270Y622730D01*
X5482730D01*
X5550000Y690000D01*
G01X2933640Y1950000D02*
X2579880D01*
X2439940Y2089940D01*
X2379930D01*
G01X2160000Y2175000D02*
X2245060Y2089940D01*
G01D02*
X2379930D01*
G01X2160000Y2120200D02*
Y2175000D01*
G01D02*
X2228810D01*
G01X2379930Y2319940D02*
X2243770D01*
X2238710Y2325000D01*
X2160000D01*
G01X3690000Y1191000D02*
X3526710D01*
G01D02*
X3395700Y1059990D01*
G01D02*
X3288000D01*
G01Y962190D02*
Y1059990D01*
G01D02*
Y1157790D01*
G01X3690000Y1064000D02*
X3554000D01*
X3510000Y1020000D01*
Y925000D01*
G01X3515000Y1440000D02*
Y1361290D01*
X3510000Y1356290D01*
Y1350000D01*
X3473990Y1313990D01*
X3288000D01*
G01X3510000Y755000D02*
Y690000D01*
G01D02*
X3447820D01*
X3435120Y702700D01*
X3391300D01*
X3288000Y806000D01*
G01X3510000Y690000D02*
X3629990D01*
X3690000Y750010D01*
Y810000D01*
G01X2933640Y1950000D02*
X2970000Y1913640D01*
Y1800000D01*
G01X3224380Y2490000D02*
X3122510Y2388130D01*
Y2138870D01*
X2933640Y1950000D01*
G01X3288000Y2075990D02*
X3395700D01*
X3401690Y2070000D01*
X3810000D01*
X4264000Y1616000D01*
Y1191000D01*
G01X3288000Y1821990D02*
X3818010D01*
X4050000Y1590000D01*
Y1110000D01*
X4096000Y1064000D01*
X4264000D01*
G01X4170000Y2490000D02*
X3224380D01*
G01X3288000Y2329990D02*
X4073360D01*
X4423350Y1980000D01*
G01X3690000Y1191000D02*
Y1234300D01*
G01Y1191000D02*
X3757310D01*
G01X3690000Y937000D02*
X3863000D01*
X3930000Y870000D01*
G01X4264000Y937000D02*
Y810000D01*
G01Y937000D02*
X4043000D01*
X3916000Y1064000D01*
G01X3685000Y1440000D02*
X3870000D01*
X3900000Y1410000D01*
Y1221000D01*
X3901000Y1220000D01*
Y1162000D01*
X3900000Y1161000D01*
Y1080000D01*
X3916000Y1064000D01*
G01X3690000D02*
X3840000D01*
G01X4423350Y1980000D02*
X4393350Y1950000D01*
Y1054700D01*
X4333100Y994450D01*
Y982090D01*
X4288010Y937000D01*
X4264000D01*
G01X3840000Y1064000D02*
X3916000D01*
G01X3840000Y1035000D02*
Y1064000D01*
G01X4170000Y2490000D02*
X4435000Y2225000D01*
X4770000D01*
G01X5853000Y2667700D02*
X5820700Y2700000D01*
X4620000D01*
X4590000Y2670000D01*
X4350000D01*
X4170000Y2490000D01*
G01X4770000Y2100000D02*
Y2225000D01*
G01X4423350Y1980000D02*
X4980000D01*
X5040000Y2040000D01*
G01D02*
Y2205000D01*
G01Y2040000D02*
X5100000Y1980000D01*
X5310000D01*
X5370000Y2040000D01*
Y2185000D01*
X5360000Y2195000D01*
G01X4770000Y2225000D02*
X4900000D01*
G01X5040000Y2375000D02*
Y2497000D01*
X5103000Y2560000D01*
G01X4900000Y2375000D02*
X5040000D01*
G01X4710000Y2490000D02*
X4785000D01*
X4829400Y2445600D01*
Y2431590D01*
X4885990Y2375000D01*
X4900000D01*
G01X5220000Y2205000D02*
X5230000D01*
Y2080000D01*
G01X5750000Y2205000D02*
X5828710D01*
G01X5853000Y2560000D02*
Y2667700D01*
G01X5828710Y2205000D02*
X5843710Y2190000D01*
X5910000D01*
X5940000Y2220000D01*
Y2490000D01*
G01D02*
X5870000Y2560000D01*
X5853000D01*
G01Y2462200D02*
Y2560000D01*
G01X5755200D02*
X5853000D01*
G01X5360000Y2195000D02*
X5521290D01*
X5531290Y2185000D01*
X5610000D01*
G01X5353000Y2560000D02*
Y2436700D01*
X5360000Y2429700D01*
Y2365000D01*
G01X5220000Y2355000D02*
X5360000D01*
Y2365000D01*
G01X5750000Y2355000D02*
X5610000D01*
G01X5603000Y2560000D02*
Y2426700D01*
X5610000Y2419700D01*
Y2355000D01*
G54D11*
X1836000Y1364000D03*
Y1872000D03*
Y2380000D03*
X3288000Y806000D03*
Y1059990D03*
Y1313990D03*
Y1567990D03*
Y1821990D03*
Y2075990D03*
X4551000Y849000D03*
X5853000Y2560000D03*
X5603000D03*
X5353000D03*
G54D21*
G01X5890000Y1030000D02*
X5380000D01*
X5199000Y849000D01*
X4551000D01*
G01Y1357000D02*
X4814000Y1620000D01*
X5630000D01*
X5890000Y1880000D01*
G54D12*
X1905000Y870000D03*
X1755000D03*
X1905000Y720000D03*
X1755000D03*
X3515000Y1440000D03*
X3685000D03*
G54D13*
X2379930Y2089940D03*
Y2549940D03*
Y2319940D03*
G54D14*
X2970000Y2320000D03*
G54D15*
X2160000Y2175000D03*
Y2325000D03*
X3510000Y755000D03*
Y925000D03*
X4900000Y2375000D03*
Y2225000D03*
X5040000Y2375000D03*
Y2205000D03*
X5750000Y2355000D03*
Y2205000D03*
X5220000Y2355000D03*
Y2205000D03*
X5360000Y2365000D03*
Y2195000D03*
X5610000Y2355000D03*
Y2185000D03*
G54D16*
X3288000Y2329990D03*
X4551000Y1357000D03*
X5103000Y2560000D03*
G54D17*
X4264000Y810000D03*
Y937000D03*
Y1064000D03*
Y1191000D03*
X3690000D03*
Y1064000D03*
Y937000D03*
Y810000D03*
G54D18*
X5890000Y1030000D03*
G54D19*
Y1880000D03*
M02*
