G04 ================== begin FILE IDENTIFICATION RECORD ==================*
G04 Layout Name:  C:/DATA/git/Cadence/modules/BinSensors/allegro/BINSENSORS.brd*
G04 Film Name:    SC_BOT*
G04 File Format:  Gerber RS274X*
G04 File Origin:  Cadence Allegro 17.2-P019*
G04 Origin Date:  Tue Jun 20 09:33:12 2017*
G04 *
G04 Layer:  REF DES/SILKSCREEN_BOTTOM*
G04 Layer:  PACKAGE GEOMETRY/SILKSCREEN_BOTTOM*
G04 Layer:  BOARD GEOMETRY/SILKSCREEN_BOTTOM*
G04 Layer:  BOARD GEOMETRY/DESIGN_OUTLINE*
G04 *
G04 Offset:    (0.0000 0.0000)*
G04 Mirror:    No*
G04 Mode:      Positive*
G04 Rotation:  0*
G04 FullContactRelief:  No*
G04 UndefLineWidth:     0.0000*
G04 ================== end FILE IDENTIFICATION RECORD ====================*
%FSLAX25Y25*MOMM*%
%IR0*IPPOS*OFA0.00000B0.00000*MIA0B0*SFA1.00000B1.00000*%
%ADD10C,.1*%
%ADD11C,.15*%
%ADD12C,.254*%
G75*
%LPD*%
G75*
G36*
G01X3605000Y800000D02*
G03I-25000J0D01*
G37*
G54D10*
G01X2510000Y2000000D02*
Y2630000D01*
X2840000D01*
Y2000000D01*
X2510000D01*
G54D11*
G01X1629370Y912180D02*
X1635210Y916120D01*
X1642030Y918740D01*
X1649820D01*
X1658580Y914800D01*
X1665390Y908240D01*
X1670260Y900370D01*
X1674160Y887240D01*
X1675130Y875430D01*
X1673180Y863620D01*
X1670260Y855750D01*
X1664420Y847870D01*
X1657610Y842620D01*
X1650790Y840000D01*
X1643970D01*
X1637160Y842620D01*
X1631320Y846560D01*
X1626450Y851810D01*
G01X1572050Y840000D02*
Y918740D01*
X1583730Y902990D01*
G01Y840000D02*
X1560370D01*
G01X1493310Y918740D02*
X1501100Y916120D01*
X1506940Y909550D01*
X1510840Y901680D01*
X1513760Y891180D01*
X1514730Y879370D01*
X1513760Y867560D01*
X1510840Y857060D01*
X1506940Y849180D01*
X1501100Y842620D01*
X1493310Y840000D01*
X1485520Y842620D01*
X1479680Y849180D01*
X1475780Y857060D01*
X1472860Y867560D01*
X1471890Y879370D01*
X1472860Y891180D01*
X1475780Y901680D01*
X1479680Y909550D01*
X1485520Y916120D01*
X1493310Y918740D01*
G01X1720000Y820000D02*
X1940000D01*
Y920000D01*
X1720000D01*
Y820000D01*
G01X1629370Y762180D02*
X1635210Y766120D01*
X1642030Y768740D01*
X1649820D01*
X1658580Y764800D01*
X1665390Y758240D01*
X1670260Y750370D01*
X1674160Y737240D01*
X1675130Y725430D01*
X1673180Y713620D01*
X1670260Y705750D01*
X1664420Y697870D01*
X1657610Y692620D01*
X1650790Y690000D01*
X1643970D01*
X1637160Y692620D01*
X1631320Y696560D01*
X1626450Y701810D01*
G01X1588600Y699180D02*
X1581790Y692620D01*
X1574000Y690000D01*
X1566210Y692620D01*
X1559390Y700500D01*
X1554520Y712310D01*
X1552580Y724120D01*
Y738560D01*
X1554520Y750370D01*
X1559390Y760870D01*
X1565230Y766120D01*
X1572050Y768740D01*
X1579840Y766120D01*
X1585680Y760870D01*
X1589580Y752990D01*
X1591520Y742490D01*
X1589580Y733310D01*
X1584710Y724120D01*
X1578870Y718870D01*
X1572050Y717560D01*
X1564260Y720180D01*
X1558420Y726740D01*
X1552580Y738560D01*
G01X2087820Y2469370D02*
X2083880Y2475210D01*
X2081260Y2482030D01*
Y2489820D01*
X2085200Y2498580D01*
X2091760Y2505390D01*
X2099630Y2510260D01*
X2112760Y2514160D01*
X2124570Y2515130D01*
X2136380Y2513180D01*
X2144250Y2510260D01*
X2152130Y2504420D01*
X2157380Y2497610D01*
X2160000Y2490790D01*
Y2483970D01*
X2157380Y2477160D01*
X2153440Y2471320D01*
X2148190Y2466450D01*
G01X2144250Y2433470D02*
X2153440Y2427630D01*
X2158690Y2419840D01*
X2160000Y2411080D01*
X2158690Y2403290D01*
X2152130Y2395500D01*
X2144250Y2390630D01*
X2136380Y2389660D01*
X2127190Y2391600D01*
X2120630Y2398420D01*
X2118000Y2405230D01*
Y2414000D01*
G01Y2405230D02*
X2114070Y2399390D01*
X2107510Y2394520D01*
X2099630Y2392580D01*
X2091760Y2394520D01*
X2085200Y2399390D01*
X2081260Y2408160D01*
X2082570Y2416920D01*
X2087820Y2425680D01*
G01X2963740Y2532790D02*
X2907310D01*
X2895500Y2536680D01*
X2887620Y2544470D01*
X2885000Y2554210D01*
X2887620Y2563950D01*
X2895500Y2571740D01*
X2907310Y2575630D01*
X2963740D01*
G01X2885000Y2632950D02*
X2963740D01*
X2947990Y2621270D01*
G01X2885000D02*
Y2644630D01*
G01X2110000Y2360000D02*
Y2140000D01*
X2210000D01*
Y2360000D01*
X2110000D01*
G01X3104250Y770260D02*
X3112130Y765390D01*
X3117380Y759550D01*
X3120000Y752740D01*
X3117380Y744950D01*
X3112130Y739110D01*
X3104250Y733260D01*
X3093750Y731320D01*
X3041260D01*
G01X3104250Y693470D02*
X3113440Y687630D01*
X3118690Y679840D01*
X3120000Y671080D01*
X3118690Y663290D01*
X3112130Y655500D01*
X3104250Y650630D01*
X3096380Y649660D01*
X3087190Y651600D01*
X3080630Y658420D01*
X3078000Y665230D01*
Y674000D01*
G01Y665230D02*
X3074070Y659390D01*
X3067510Y654520D01*
X3059630Y652580D01*
X3051760Y654520D01*
X3045200Y659390D01*
X3041260Y668160D01*
X3042570Y676920D01*
X3047820Y685680D01*
G01X3160000Y2460000D02*
Y650000D01*
X3420000D01*
Y2460000D01*
X3160000D01*
G01X3540000Y1100260D02*
X3461260D01*
Y1075920D01*
X3465200Y1068130D01*
X3470450Y1063260D01*
X3480950Y1061320D01*
X3491440Y1063260D01*
X3498000Y1069110D01*
X3501940Y1075920D01*
Y1100260D01*
G01Y1075920D02*
X3540000Y1061320D01*
G01Y990370D02*
X3461260D01*
X3517690Y1026390D01*
Y977710D01*
G01X3460000Y950000D02*
Y730000D01*
X3560000D01*
Y950000D01*
X3460000D01*
G01X3710260Y1530000D02*
Y1608740D01*
X3685920D01*
X3678130Y1604800D01*
X3673260Y1599550D01*
X3671320Y1589050D01*
X3673260Y1578560D01*
X3679110Y1572000D01*
X3685920Y1568060D01*
X3710260D01*
G01X3685920D02*
X3671320Y1530000D01*
G01X3630550Y1562810D02*
X3623730Y1572000D01*
X3617890Y1577240D01*
X3610100Y1579870D01*
X3603290Y1577240D01*
X3598420Y1572000D01*
X3594520Y1564120D01*
X3593550Y1554930D01*
X3594520Y1547060D01*
X3598420Y1539180D01*
X3604260Y1532620D01*
X3611080Y1530000D01*
X3618870Y1532620D01*
X3625680Y1540500D01*
X3629580Y1552310D01*
X3630550Y1565430D01*
X3628600Y1582490D01*
X3625680Y1591680D01*
X3620810Y1600870D01*
X3614000Y1607430D01*
X3607180Y1608740D01*
X3600370Y1606120D01*
X3595500Y1599550D01*
G01X3490000Y1390000D02*
X3710000D01*
Y1490000D01*
X3490000D01*
Y1390000D01*
G01X4312210Y1458740D02*
Y1402310D01*
X4308320Y1390500D01*
X4300530Y1382620D01*
X4290790Y1380000D01*
X4281050Y1382620D01*
X4273260Y1390500D01*
X4269370Y1402310D01*
Y1458740D01*
G01X4230550Y1445620D02*
X4224710Y1453490D01*
X4217890Y1457430D01*
X4210100Y1458740D01*
X4200370Y1456120D01*
X4193550Y1449550D01*
X4191600Y1441680D01*
X4192580Y1433800D01*
X4196470Y1427240D01*
X4215940Y1414120D01*
X4224710Y1404930D01*
X4230550Y1391810D01*
X4232500Y1380000D01*
X4191600D01*
G01X4932180Y2060630D02*
X4936120Y2054790D01*
X4938740Y2047970D01*
Y2040180D01*
X4934800Y2031420D01*
X4928240Y2024610D01*
X4920370Y2019740D01*
X4907240Y2015840D01*
X4895430Y2014870D01*
X4883620Y2016820D01*
X4875750Y2019740D01*
X4867870Y2025580D01*
X4862620Y2032390D01*
X4860000Y2039210D01*
Y2046030D01*
X4862620Y2052840D01*
X4866560Y2058680D01*
X4871810Y2063550D01*
G01X4860000Y2129630D02*
X4938740D01*
X4882310Y2093610D01*
Y2142290D01*
G01X5010000Y2019740D02*
X5088740D01*
Y2044080D01*
X5084800Y2051870D01*
X5079550Y2056740D01*
X5069050Y2058680D01*
X5058560Y2056740D01*
X5052000Y2050890D01*
X5048060Y2044080D01*
Y2019740D01*
G01Y2044080D02*
X5010000Y2058680D01*
G01Y2117950D02*
X5088740D01*
X5072990Y2106270D01*
G01X5010000D02*
Y2129630D01*
G01X4950000Y2190000D02*
Y2410000D01*
X4850000D01*
Y2190000D01*
X4950000D01*
G01X5090000Y2180000D02*
Y2400000D01*
X4990000D01*
Y2180000D01*
X5090000D01*
G01X5252180Y2050630D02*
X5256120Y2044790D01*
X5258740Y2037970D01*
Y2030180D01*
X5254800Y2021420D01*
X5248240Y2014610D01*
X5240370Y2009740D01*
X5227240Y2005840D01*
X5215430Y2004870D01*
X5203620Y2006820D01*
X5195750Y2009740D01*
X5187870Y2015580D01*
X5182620Y2022390D01*
X5180000Y2029210D01*
Y2036030D01*
X5182620Y2042840D01*
X5186560Y2048680D01*
X5191810Y2053550D01*
G01Y2086530D02*
X5185250Y2092370D01*
X5181310Y2099190D01*
X5180000Y2107950D01*
X5182620Y2116710D01*
X5187870Y2123530D01*
X5197060Y2128400D01*
X5207560Y2129370D01*
X5218060Y2127420D01*
X5224620Y2122550D01*
X5229870Y2115740D01*
X5231180Y2108920D01*
X5229870Y2102110D01*
X5224620Y2093350D01*
X5258740Y2096270D01*
Y2122550D01*
G01X5340000Y2019740D02*
X5418740D01*
Y2044080D01*
X5414800Y2051870D01*
X5409550Y2056740D01*
X5399050Y2058680D01*
X5388560Y2056740D01*
X5382000Y2050890D01*
X5378060Y2044080D01*
Y2019740D01*
G01Y2044080D02*
X5340000Y2058680D01*
G01X5405620Y2099450D02*
X5413490Y2105290D01*
X5417430Y2112110D01*
X5418740Y2119900D01*
X5416120Y2129630D01*
X5409550Y2136450D01*
X5401680Y2138400D01*
X5393800Y2137420D01*
X5387240Y2133530D01*
X5374120Y2114060D01*
X5364930Y2105290D01*
X5351810Y2099450D01*
X5340000Y2097500D01*
Y2138400D01*
G01X5580000Y2019740D02*
X5658740D01*
Y2044080D01*
X5654800Y2051870D01*
X5649550Y2056740D01*
X5639050Y2058680D01*
X5628560Y2056740D01*
X5622000Y2050890D01*
X5618060Y2044080D01*
Y2019740D01*
G01Y2044080D02*
X5580000Y2058680D01*
G01X5595750Y2096530D02*
X5586560Y2102370D01*
X5581310Y2110160D01*
X5580000Y2118920D01*
X5581310Y2126710D01*
X5587870Y2134500D01*
X5595750Y2139370D01*
X5603620Y2140340D01*
X5612810Y2138400D01*
X5619370Y2131580D01*
X5622000Y2124770D01*
Y2116000D01*
G01Y2124770D02*
X5625930Y2130610D01*
X5632490Y2135480D01*
X5640370Y2137420D01*
X5648240Y2135480D01*
X5654800Y2130610D01*
X5658740Y2121840D01*
X5657430Y2113080D01*
X5652180Y2104320D01*
G01X5952180Y2270630D02*
X5956120Y2264790D01*
X5958740Y2257970D01*
Y2250180D01*
X5954800Y2241420D01*
X5948240Y2234610D01*
X5940370Y2229740D01*
X5927240Y2225840D01*
X5915430Y2224870D01*
X5903620Y2226820D01*
X5895750Y2229740D01*
X5887870Y2235580D01*
X5882620Y2242390D01*
X5880000Y2249210D01*
Y2256030D01*
X5882620Y2262840D01*
X5886560Y2268680D01*
X5891810Y2273550D01*
G01X5912810Y2309450D02*
X5922000Y2316270D01*
X5927240Y2322110D01*
X5929870Y2329900D01*
X5927240Y2336710D01*
X5922000Y2341580D01*
X5914120Y2345480D01*
X5904930Y2346450D01*
X5897060Y2345480D01*
X5889180Y2341580D01*
X5882620Y2335740D01*
X5880000Y2328920D01*
X5882620Y2321130D01*
X5890500Y2314320D01*
X5902310Y2310420D01*
X5915430Y2309450D01*
X5932490Y2311400D01*
X5941680Y2314320D01*
X5950870Y2319190D01*
X5957430Y2326000D01*
X5958740Y2332820D01*
X5956120Y2339630D01*
X5949550Y2344500D01*
G01X5800000Y2170000D02*
Y2390000D01*
X5700000D01*
Y2170000D01*
X5800000D01*
G01X5270000D02*
Y2390000D01*
X5170000D01*
Y2170000D01*
X5270000D01*
G01X5660000Y2160000D02*
Y2380000D01*
X5560000D01*
Y2160000D01*
X5660000D01*
G54D12*
G01X4963300Y2687000D02*
Y2433000D01*
X6004700D01*
Y2687000D01*
X4963300D01*
M02*
