G04 ================== begin FILE IDENTIFICATION RECORD ==================*
G04 Layout Name:  C:/DATA/git/Cadence/modules/BinSensors/allegro/BINSENSORS.brd*
G04 Film Name:    TOP*
G04 File Format:  Gerber RS274X*
G04 File Origin:  Cadence Allegro 17.2-P019*
G04 Origin Date:  Tue Jun 20 09:33:12 2017*
G04 *
G04 Layer:  ETCH/TOP*
G04 Layer:  PIN/TOP*
G04 Layer:  VIA CLASS/TOP*
G04 *
G04 Offset:    (0.0000 0.0000)*
G04 Mirror:    No*
G04 Mode:      Positive*
G04 Rotation:  0*
G04 FullContactRelief:  No*
G04 UndefLineWidth:     0.0000*
G04 ================== end FILE IDENTIFICATION RECORD ====================*
%FSLAX25Y25*MOMM*%
%IR0*IPPOS*OFA0.00000B0.00000*MIA0B0*SFA1.00000B1.00000*%
%ADD13C,.8*%
%ADD17R,.3X.3*%
%ADD15R,1.0201X.7399*%
%ADD16R,.7399X1.0201*%
%ADD14R,1.4X2.1501*%
%ADD11R,2.1501X1.4*%
%ADD20C,3.*%
%ADD12R,1.95X1.1001*%
%ADD10R,1.1001X1.95*%
%ADD21R,3.X3.*%
%ADD18C,1.5999*%
%ADD19R,1.5999X1.5999*%
%ADD22C,.3*%
%ADD23C,2.8004*%
%ADD24C,1.8544*%
G75*
%LPD*%
G75*
G36*
G01X50010Y590010D02*
Y2714980D01*
X285020D01*
Y2769980D01*
X599880D01*
G02X608440Y2754340I3J-10161D01*
G03X598980Y2722000I50557J-32342D01*
G01Y2648000D01*
G03X612540Y2610000I60018J-2D01*
G03X598980Y2572000I46458J-37998D01*
G01Y2498000D01*
G03X600400Y2485000I60019J-22D01*
G03X598980Y2472000I58599J-12978D01*
G01Y2398000D01*
G03X615210Y2356950I60019J-4D01*
G02Y2343050I-7408J-6950D01*
G03X598980Y2302000I43789J-41046D01*
G01Y2228000D01*
G03X606520Y2198880I60017J4D01*
G03X589980Y2157500I43477J-41374D01*
G01Y1962500D01*
G03X650000Y1902480I60020J0D01*
G01X760000D01*
G03X817740Y1946080I9J60022D01*
G01X818790Y1949780D01*
X950000D01*
G03X962720Y1962500I0J12720D01*
G01Y2177500D01*
G03X950000Y2190220I-12720J0D01*
G01X926080D01*
G02X916800Y2204530I-3J10162D01*
G03X921900Y2225220I-54801J24482D01*
G01X922200Y2229980D01*
X944700D01*
X945630Y2226070D01*
G03X958000Y2216280I12376J2927D01*
G01X1032000D01*
G03X1044720Y2229000I0J12720D01*
G01Y2331000D01*
G03X1032000Y2343720I-12720J0D01*
G01X958000D01*
G03X945630Y2333930I6J-12717D01*
G01X944700Y2330020D01*
X922200D01*
X921900Y2334780D01*
G03X862000Y2391020I-59900J-3780D01*
G01X821000D01*
Y2396250D01*
G03X821020Y2398000I-59997J1561D01*
G01Y2472000D01*
G03X819600Y2485000I-60019J22D01*
G03X821020Y2498000I-58599J12978D01*
G01Y2572000D01*
G03X807460Y2610000I-60018J2D01*
G03X821020Y2648000I-46458J37998D01*
G01Y2722000D01*
G03X811560Y2754340I-60017J-2D01*
G02X820120Y2769980I8557J5479D01*
G01X1049980D01*
Y2675140D01*
X1060460Y2664660D01*
X1060800Y2663300D01*
G03X1104290Y2619810I58195J14705D01*
G01X1105650Y2619470D01*
X1111750Y2613370D01*
X1108980Y2609830D01*
G03X1106280Y2602000I10017J-7835D01*
G01Y2528000D01*
G03X1119000Y2515280I12720J0D01*
G01X1221000D01*
G03X1233720Y2528000I0J12720D01*
G01Y2602000D01*
G03X1233550Y2604070I-12717J-2D01*
G01X1233490Y2604480D01*
Y2609980D01*
X1256510D01*
Y2604480D01*
X1256450Y2604070D01*
G03X1256280Y2602000I12547J-2072D01*
G01Y2528000D01*
G03X1269000Y2515280I12720J0D01*
G01X1371000D01*
G03X1383720Y2528000I0J12720D01*
G01Y2602000D01*
G03X1383550Y2604070I-12717J-2D01*
G01X1383490Y2604480D01*
Y2609980D01*
X1715140D01*
X1739980Y2585140D01*
Y2481980D01*
X1737970Y2479980D01*
X1737960Y2479960D01*
G03X1698060Y2355990I98040J-99960D01*
G01X1698510Y2353390D01*
X1640140Y2295020D01*
X1441290D01*
X1416290Y2320020D01*
X1283710D01*
X1258710Y2295020D01*
X1228940D01*
X974980Y2041060D01*
Y1501070D01*
X795000Y1321090D01*
X780020Y1336070D01*
Y1513930D01*
X846250Y1580160D01*
X848110Y1580310D01*
G03X740310Y1688110I-8110J99690D01*
G01X740160Y1686250D01*
X629980Y1576070D01*
Y1273930D01*
X666040Y1237870D01*
G02X661720Y1220940I-7186J-7182D01*
G03X623850Y1200020I28284J-95938D01*
G01X396990D01*
G02X386930Y1211600I0J10160D01*
G03X387520Y1220000I-59430J8395D01*
G01Y1480000D01*
G03X386810Y1489230I-60022J25D01*
G01X386380Y1491980D01*
X395420Y1499980D01*
X541070D01*
X615020Y1573930D01*
Y1613850D01*
G03X441610Y1662010I-75021J66150D01*
G02X431620Y1650020I-9993J-1831D01*
G01X395420D01*
X367800Y1674480D01*
X367780Y1674500D01*
G03X327500Y1690020I-40275J-44497D01*
G01X132500D01*
G03X72480Y1630000I0J-60020D01*
G01Y1520000D01*
G03X75910Y1500000I60020J-1D01*
G03X72480Y1480000I56590J-19999D01*
G01Y1220000D01*
G03X75910Y1200000I60020J-1D01*
G03X72480Y1180000I56590J-19999D01*
G01Y1070000D01*
G03X109780Y1014440I60020J-6D01*
G01Y905000D01*
G03X122500Y892280I12720J0D01*
G01X337500D01*
G03X350220Y905000I0J12720D01*
G01Y1014440D01*
G03X382880Y1046860I-22723J55552D01*
G01X384190Y1049980D01*
X395460D01*
Y1043470D01*
X394710Y1042250D01*
G03X471890Y890310I85289J-52249D01*
G01X473750Y890160D01*
X479980Y883930D01*
Y875420D01*
X455520Y847800D01*
X455500Y847780D01*
G03X439980Y807500I44497J-40275D01*
G01Y612500D01*
G03X440910Y601950I60017J-25D01*
G02X430910Y590010I-10003J-1780D01*
G01X50010D01*
G37*
G36*
G01X546180Y859630D02*
X500000Y807500D01*
X555000Y706250D01*
X610000Y807500D01*
X563820Y859630D01*
G03X546180I-8820J-12130D01*
G37*
G36*
G01X379630Y1583820D02*
X327500Y1630000D01*
X226250Y1575000D01*
X327500Y1520000D01*
X379630Y1566180D01*
G03Y1583820I-12130J8820D01*
G37*
G36*
G01X725000Y2775000D02*
Y3775000D01*
X5825000D01*
Y3925000D01*
X75000D01*
Y2775000D01*
X225000D01*
Y3775000D01*
X695000D01*
Y2775000D01*
X725000D01*
G37*
G36*
G01X1634190Y1049980D02*
X2023930D01*
X2324980Y748930D01*
Y726180D01*
X2323770Y724760D01*
G03X2316010Y605690I76229J-64756D01*
G02X2307480Y590010I-8529J-5520D01*
G01X1279090D01*
G02X1269090Y601950I3J10160D01*
G03X1270020Y612500I-59087J10525D01*
G01Y807500D01*
G03X1210000Y867520I-60020J0D01*
G01X1100000D01*
G03X1090770Y866810I-25J-60021D01*
G01X1088020Y866380D01*
X1080020Y875420D01*
Y1123930D01*
X1215020Y1258930D01*
Y1888930D01*
X1305020Y1978930D01*
Y2008930D01*
X1356250Y2060160D01*
X1358110Y2060310D01*
G03X1448170Y2140870I-8112J99689D01*
G01X1448970Y2144980D01*
X2878930D01*
X3022940Y2000970D01*
X3165010D01*
X3188020Y1977960D01*
X3188040Y1977950D01*
G03X3213270Y1957580I99980J98024D01*
G02Y1940400I-5422J-8590D01*
G03Y1703580I74730J-118410D01*
G02Y1686400I-5422J-8590D01*
G03X3150830Y1539920I74732J-118404D01*
G02X3140870Y1527720I-9954J-2040D01*
G01X2658370D01*
X2655020Y1531070D01*
Y1793850D01*
G03X2504980I-75020J66150D01*
G01Y1468930D01*
X2561540Y1412360D01*
G02X2554360Y1395020I-7184J-7182D01*
G01X2115020D01*
Y1561070D01*
X2041070Y1635020D01*
X1709130D01*
X1654860Y1580760D01*
G02X1637520Y1587940I-7182J7184D01*
G01Y1630000D01*
G03X1577500Y1690020I-60020J0D01*
G01X1382500D01*
G03X1322480Y1630000I0J-60020D01*
G01Y1520000D01*
G03X1325910Y1500000I60020J-1D01*
G03X1322480Y1480000I56590J-19999D01*
G01Y1370000D01*
G03X1325910Y1350000I60020J-1D01*
G03X1322480Y1330000I56590J-19999D01*
G01Y1220000D01*
G03X1325910Y1200000I60020J-1D01*
G03X1322480Y1180000I56590J-19999D01*
G01Y1070000D01*
G03X1359780Y1014440I60020J-6D01*
G01Y905000D01*
G03X1372500Y892280I12720J0D01*
G01X1587500D01*
G03X1600220Y905000I0J12720D01*
G01Y1014440D01*
G03X1632880Y1046860I-22723J55552D01*
G01X1634190Y1049980D01*
G37*
G36*
G01X846180Y859630D02*
X800000Y807500D01*
X855000Y706250D01*
X910000Y807500D01*
X863820Y859630D01*
G03X846180I-8820J-12130D01*
G37*
G36*
G01X996180D02*
X950000Y807500D01*
X1005000Y706250D01*
X1060000Y807500D01*
X1013820Y859630D01*
G03X996180I-8820J-12130D01*
G37*
G36*
G01X697610Y2198250D02*
X656090Y2157490D01*
X705000Y2056250D01*
X753910Y2157490D01*
X712390Y2198250D01*
G03X697610I-7390J-13050D01*
G37*
G36*
G01X1234120Y2557340D02*
X1269000Y2528000D01*
X1323750Y2565000D01*
X1269000Y2602000D01*
X1234120Y2572660D01*
G03Y2557340I12890J-7660D01*
G37*
G36*
G01X1178650Y2479750D02*
X1221000Y2528000D01*
X1170000Y2568750D01*
X1119000Y2528000D01*
X1161350Y2479750D01*
G03X1178650I8650J12260D01*
G37*
G36*
G01X1255880Y2572660D02*
X1221000Y2602000D01*
X1166250Y2565000D01*
X1221000Y2528000D01*
X1255880Y2557340D01*
G03Y2572660I-12890J7660D01*
G37*
G36*
G01X1002660Y2194120D02*
X1032000Y2229000D01*
X995000Y2283750D01*
X958000Y2229000D01*
X987340Y2194120D01*
G03X1002660I7660J12890D01*
G37*
G36*
G01X1080250Y2288650D02*
X1032000Y2331000D01*
X991250Y2280000D01*
X1032000Y2229000D01*
X1080250Y2271350D01*
G03Y2288650I-12260J8650D01*
G37*
G36*
G01X728360Y2252750D02*
X788000Y2229000D01*
X828700Y2280630D01*
X788000Y2331000D01*
X725140Y2274170D01*
G03X728360Y2252750I11871J-9168D01*
G37*
G36*
G01X795880Y2272660D02*
X761000Y2302000D01*
X706250Y2265000D01*
X761000Y2228000D01*
X795880Y2257340D01*
G03Y2272660I-12890J7660D01*
G37*
G36*
G01X718650Y2179750D02*
X761000Y2228000D01*
X710000Y2268750D01*
X659000Y2228000D01*
X701350Y2179750D01*
G03X718650I8650J12260D01*
G37*
G36*
G01X1255880Y2722660D02*
X1221000Y2752000D01*
X1166250Y2715000D01*
X1221000Y2678000D01*
X1255880Y2707340D01*
G03Y2722660I-12890J7660D01*
G37*
G36*
G01X1405880D02*
X1371000Y2752000D01*
X1316250Y2715000D01*
X1371000Y2678000D01*
X1405880Y2707340D01*
G03Y2722660I-12890J7660D01*
G37*
G36*
G01X1234120Y2707340D02*
X1269000Y2678000D01*
X1323750Y2715000D01*
X1269000Y2752000D01*
X1234120Y2722660D01*
G03Y2707340I12890J-7660D01*
G37*
G36*
G01X701350Y2520250D02*
X659000Y2472000D01*
X710000Y2431250D01*
X761000Y2472000D01*
X718650Y2520250D01*
G03X701350I-8650J-12260D01*
G37*
G36*
G01X718650Y2449750D02*
X761000Y2498000D01*
X710000Y2538750D01*
X659000Y2498000D01*
X701350Y2449750D01*
G03X718650I8650J12260D01*
G37*
G36*
G01X1741070Y1275020D02*
X1666070Y1350020D01*
X1660840D01*
G02X1653660Y1367360I4J10158D01*
G01X1771270Y1484980D01*
X1964980D01*
Y1318930D01*
X1991540Y1292360D01*
G02X1984360Y1275020I-7184J-7182D01*
G01X1902120D01*
G02X1895590Y1292960I0J10159D01*
G03X1776410I-59590J71040D01*
G02X1769880Y1275020I-6530J-7781D01*
G01X1741070D01*
G37*
G36*
G01X1629630Y1283820D02*
X1577500Y1330000D01*
X1476250Y1275000D01*
X1577500Y1220000D01*
X1629630Y1266180D01*
G03Y1283820I-12130J8820D01*
G37*
G36*
G01X1618250Y1432390D02*
X1577490Y1473910D01*
X1476250Y1425000D01*
X1577490Y1376090D01*
X1618250Y1417610D01*
G03Y1432390I-13050J7390D01*
G37*
G36*
G01X1825390Y2482530D02*
X1779440Y2436560D01*
X1836000Y2376250D01*
X1892560Y2436560D01*
X1846610Y2482530D01*
G03X1825390I-10610J-10610D01*
G37*
G36*
G01X1911420Y2326070D02*
G03X1812710Y2469750I-75421J53932D01*
G02X1800000Y2479580I-2551J9833D01*
G01Y2610000D01*
X1740000Y2670000D01*
X1383480D01*
Y2675500D01*
X1383550Y2675910D01*
G03X1383720Y2678000I-12547J2072D01*
G01Y2752000D01*
G03X1383550Y2754090I-12717J18D01*
G01X1383480Y2754500D01*
Y2760000D01*
X1890000D01*
X2070000Y2580000D01*
Y2370000D01*
X2010000Y2310000D01*
X1919690D01*
G02X1911420Y2326070I-5J10160D01*
G37*
G36*
G01X2950070Y756020D02*
X2865020Y841070D01*
Y1141070D01*
X2645760Y1360340D01*
G02X2652940Y1377680I7184J7182D01*
G01X3118220D01*
X3147980Y1347910D01*
X3147990Y1315150D01*
Y1315130D01*
G03X3362720Y1432400I140010J-1140D01*
G02Y1449580I5426J8590D01*
G03X3387960Y1469950I-74722J118409D01*
G01X3387980Y1469960D01*
X3410990Y1492970D01*
X3830940D01*
X3914980Y1408930D01*
Y1129210D01*
X3909150D01*
X3908430Y1129430D01*
G03X3902950Y1130820I-17481J-57420D01*
G02X3900260Y1139280I1006J4978D01*
G03X3903720Y1148000I-9258J8720D01*
G01Y1222000D01*
G03X3891000Y1234720I-12720J0D01*
G01X3789000D01*
G03X3776280Y1222000I0J-12720D01*
G01Y1148000D01*
G03X3777310Y1142970I12720J-16D01*
G02X3771020Y1129260I-9331J-4017D01*
G03X3728980Y1072000I17978J-57262D01*
G01Y998000D01*
G03X3789000Y937980I60020J0D01*
G01X3815660D01*
X3816250Y937840D01*
G03X3835010Y935100I23770J97157D01*
G02X3843310Y919890I-505J-10145D01*
G03X4029690Y861890I86689J-49890D01*
G01X4029840Y863750D01*
X4065020Y898930D01*
Y1471070D01*
X3893080Y1643010D01*
X3410990D01*
X3387980Y1666020D01*
X3387960Y1666030D01*
G03X3362730Y1686400I-99980J-98024D01*
G02Y1703580I5422J8590D01*
G03Y1940400I-74730J118410D01*
G02Y1957580I5422J8590D01*
G03X3385160Y2176810I-74728J118408D01*
G02X3388700Y2193660I7049J7316D01*
G03X3418550Y2217640I-20702J56337D01*
G01X3419660Y2219370D01*
X3420640Y2221180D01*
G03X3428020Y2250000I-52640J28835D01*
G01Y2409980D01*
G03X3420020Y2439910I-60021J-9D01*
G01Y2588980D01*
X3462000D01*
G03X3506150Y2608340I1J60019D01*
G01X3507660Y2609980D01*
X3512340D01*
X3513850Y2608340D01*
G03X3558000Y2588980I44149J40659D01*
G01X3632000D01*
G03X3645000Y2590400I22J60019D01*
G03X3658000Y2588980I12978J58599D01*
G01X3732000D01*
G03X3789260Y2631020I-2J60018D01*
G02X3802970Y2637310I9693J-3041D01*
G03X3808000Y2636280I5014J11690D01*
G01X3882000D01*
G03X3894720Y2649000I0J12720D01*
G01Y2751000D01*
G03X3893730Y2755910I-12721J-10D01*
G02X3903110Y2769980I9378J3910D01*
G01X6099990D01*
Y2079420D01*
G02X6082620Y2072260I-10160J-2D01*
G03X6040000Y2090020I-42620J-42259D01*
G01X5740000D01*
G03X5695680Y2070480I0J-60033D01*
G02X5678020Y2077330I-7502J6850D01*
G01Y2437010D01*
X5701030Y2460020D01*
X5701040Y2460040D01*
G03X5486460Y2637600I-98035J99965D01*
G02X5469540I-8460J5631D01*
G03X5254850Y2659850I-116540J-77601D01*
G02X5238360Y2663180I-7117J7250D01*
G03X5183000Y2700020I-55365J-23183D01*
G01X5023000D01*
G03X4962980Y2640000I5J-60025D01*
G01Y2480000D01*
G03X5023000Y2419980I60025J5D01*
G01X5183000D01*
G03X5238360Y2456820I-5J60023D01*
G02X5254850Y2460150I9373J-3920D01*
G01X5254960Y2460040D01*
X5254970Y2460020D01*
X5277980Y2437010D01*
Y1964070D01*
X5248930Y1935020D01*
X4288930D01*
X4283690Y1929790D01*
G02X4275020Y1933380I-3591J3591D01*
G01Y2398930D01*
X4291070Y2414980D01*
X4643850D01*
G03Y2565020I66150J75020D01*
G01X4228930D01*
X4124980Y2461070D01*
Y871070D01*
X4009930Y756020D01*
X3432800D01*
G02X3423010Y768870I6J10159D01*
G03X3152990I-135010J37130D01*
G02X3143200Y756020I-9796J-2691D01*
G01X2950070D01*
G37*
G36*
G01X3120000Y2280000D02*
X3090000Y2310000D01*
X2310000D01*
X2280000Y2340000D01*
Y2430000D01*
X2340000Y2490000D01*
X3240000D01*
X3300000Y2550000D01*
Y2636280D01*
X3360000D01*
Y2593650D01*
X3359520Y2592620D01*
G03X3360000Y2506370I90481J-42623D01*
G01Y2422700D01*
X3208000D01*
G03X3195280Y2409980I0J-12720D01*
G01Y2280000D01*
X3120000D01*
G37*
G36*
G01X3208000Y1378980D02*
X3208010Y1313990D01*
X3290650Y1311340D01*
X3288000Y1393970D01*
X3223000Y1393980D01*
G03X3208000Y1378980I0J-15000D01*
G37*
G36*
G01X3185470Y2065380D02*
X3231440Y2019430D01*
X3291750Y2075990D01*
X3231440Y2132550D01*
X3185470Y2086600D01*
G03Y2065380I10610J-10610D01*
G37*
G36*
G01X3390530Y1578600D02*
X3344560Y1624550D01*
X3284250Y1567990D01*
X3344560Y1511430D01*
X3390530Y1557380D01*
G03Y1578600I-10610J10610D01*
G37*
G36*
G01X3339750Y2691350D02*
X3388000Y2649000D01*
X3428750Y2700000D01*
X3388000Y2751000D01*
X3339750Y2708650D01*
G03Y2691350I12260J-8650D01*
G37*
G36*
G01X3332660Y2614120D02*
X3362000Y2649000D01*
X3325000Y2703750D01*
X3288000Y2649000D01*
X3317340Y2614120D01*
G03X3332660I7660J12890D01*
G37*
G36*
G01X3410250Y2708650D02*
X3362000Y2751000D01*
X3321250Y2700000D01*
X3362000Y2649000D01*
X3410250Y2691350D01*
G03Y2708650I-12260J8650D01*
G37*
G36*
G01X3680250D02*
X3632000Y2751000D01*
X3591250Y2700000D01*
X3632000Y2649000D01*
X3680250Y2691350D01*
G03Y2708650I-12260J8650D01*
G37*
G36*
G01X3609750Y2691350D02*
X3658000Y2649000D01*
X3698750Y2700000D01*
X3658000Y2751000D01*
X3609750Y2708650D01*
G03Y2691350I12260J-8650D01*
G37*
G36*
G01X3140250Y2708650D02*
X3092000Y2751000D01*
X3051250Y2700000D01*
X3092000Y2649000D01*
X3140250Y2691350D01*
G03Y2708650I-12260J8650D01*
G37*
G36*
G01X3069750Y2691350D02*
X3118000Y2649000D01*
X3158750Y2700000D01*
X3118000Y2751000D01*
X3069750Y2708650D01*
G03Y2691350I12260J-8650D01*
G37*
G36*
G01X3754120Y1177340D02*
X3789000Y1148000D01*
X3843750Y1185000D01*
X3789000Y1222000D01*
X3754120Y1192660D01*
G03Y1177340I12890J-7660D01*
G37*
G36*
G01X3930250Y2708650D02*
X3882000Y2751000D01*
X3841250Y2700000D01*
X3882000Y2649000D01*
X3930250Y2691350D01*
G03Y2708650I-12260J8650D01*
G37*
G36*
G01X5363610Y2457470D02*
X5409560Y2503440D01*
X5353000Y2563750D01*
X5296440Y2503440D01*
X5342390Y2457470D01*
G03X5363610I10610J10610D01*
G37*
G36*
G01X5613610D02*
X5659560Y2503440D01*
X5603000Y2563750D01*
X5546440Y2503440D01*
X5592390Y2457470D01*
G03X5613610I10610J10610D01*
G37*
%LPC*%
G75*
G36*
G01X109780Y1730000D02*
Y1870000D01*
G02X122500Y1882720I12720J0D01*
G01X337500D01*
G02X350220Y1870000I0J-12720D01*
G01Y1730000D01*
G02X337500Y1717280I-12720J0D01*
G01X122500D01*
G02X109780Y1730000I0J12720D01*
G37*
G36*
G01X1359780D02*
Y1870000D01*
G02X1372500Y1882720I12720J0D01*
G01X1587500D01*
G02X1600220Y1870000I0J-12720D01*
G01Y1730000D01*
G02X1587500Y1717280I-12720J0D01*
G01X1372500D01*
G02X1359780Y1730000I0J12720D01*
G37*
G54D23*
X1836000Y1872000D03*
G54D24*
X3288000Y1059990D03*
X5853000Y2560000D03*
%LPD*%
G75*
G36*
G01X404290Y1809270D02*
X337500Y1870000D01*
X226250Y1800000D01*
X337500Y1730000D01*
X404290Y1790730D01*
G03Y1809270I-11790J9270D01*
G37*
G36*
G01X1637840Y1808090D02*
X1587490Y1858920D01*
X1476250Y1800000D01*
X1587490Y1741080D01*
X1637840Y1791910D01*
G03Y1808090I-12630J8090D01*
G37*
G36*
G01X3390530Y1070600D02*
X3344560Y1116550D01*
X3284250Y1059990D01*
X3344560Y1003430D01*
X3390530Y1049380D01*
G03Y1070600I-10610J10610D01*
G37*
G36*
G01X5773000Y2625000D02*
X5773010Y2560000D01*
X5855650Y2557350D01*
X5853000Y2639990D01*
X5788000Y2640000D01*
G03X5773000Y2625000I0J-15000D01*
G37*
G54D10*
X555000Y710000D03*
X1155000D03*
X1005000D03*
X855000D03*
X705000D03*
Y2060000D03*
G54D20*
X5890000Y1030000D03*
G54D11*
X230000Y975000D03*
Y1800000D03*
X1480000Y975000D03*
Y1800000D03*
G54D21*
X5890000Y1880000D03*
G54D12*
X230000Y1125000D03*
Y1275000D03*
Y1425000D03*
Y1575000D03*
X1480000Y1275000D03*
Y1125000D03*
Y1575000D03*
Y1425000D03*
G54D22*
G01X230000Y975000D02*
X163850D01*
X87500Y1051350D01*
Y1695010D01*
G01X230000Y887200D02*
Y975000D01*
G01D02*
X355310D01*
G01X555000Y710000D02*
Y915000D01*
X480000Y990000D01*
G01X230000Y1125000D02*
X690000D01*
G01X87500Y1695010D02*
X192490Y1800000D01*
X230000D01*
G01X780010D02*
X230000D01*
G01Y1712200D02*
Y1800000D01*
G01D02*
Y1887800D01*
G01Y1575000D02*
X510000D01*
X540000Y1605000D01*
Y1680000D01*
G01X1480000Y975000D02*
X1344790D01*
G01D02*
X1290000Y1029790D01*
Y1745210D01*
X1344790Y1800000D01*
G01X3288000Y2075990D02*
X3054010D01*
X2910000Y2220000D01*
X1410220D01*
X1385220Y2245000D01*
X1314780D01*
X1289780Y2220000D01*
X1260010D01*
X1050000Y2009990D01*
Y1470000D01*
X855000Y1275000D01*
Y710000D01*
G01X705000D02*
Y945000D01*
X775000Y1015000D01*
Y1235000D01*
X705000Y1305000D01*
Y1545000D01*
X840000Y1680000D01*
G01X1350000Y2160000D02*
X1230000Y2040000D01*
Y2010000D01*
X1140000Y1920000D01*
Y1290000D01*
X1005000Y1155000D01*
Y710000D01*
G01X880000Y2070000D02*
Y1899990D01*
G01Y2070000D02*
X930000D01*
X995000Y2135000D01*
G01X880000Y1899990D02*
X780010Y1800000D01*
G01X1344790D02*
X1480000D01*
G01X705000Y2060000D02*
Y2185200D01*
X710000D01*
Y2265000D01*
G01X1170000Y2565000D02*
X1320000D01*
G01X1170000D02*
Y2310000D01*
G01X995000Y2135000D02*
Y2280000D01*
G01X1140000D02*
X995000D01*
G01X1170000Y2310000D02*
X1140000Y2280000D01*
G01X1320000Y2510200D02*
Y2565000D01*
G01D02*
X1388810D01*
G01X710000Y2685000D02*
Y2760000D01*
G01Y2265000D02*
X825000D01*
Y2280000D01*
G01X1170000Y2715000D02*
X1320000D01*
G01D02*
X1755000D01*
G01X710000Y2435000D02*
Y2535000D01*
G01X1480000Y887200D02*
Y975000D01*
G01D02*
X1605310D01*
G01X1480000Y1425000D02*
X1605200D01*
X1740200Y1560000D01*
X2010000D01*
X2040000Y1530000D01*
Y1350000D01*
X2070000Y1320000D01*
X2580000D01*
X2790000Y1110000D01*
Y810000D01*
X2919000Y681000D01*
X4041000D01*
X4200000Y840000D01*
Y2430000D01*
X4260000Y2490000D01*
X4710000D01*
G01X1480000Y1275000D02*
X1635000D01*
X1710000Y1200000D01*
X2490000D01*
X2670000Y1020000D01*
Y720000D01*
X2760000Y630000D01*
X4080000D01*
X4290000Y840000D01*
Y1830000D01*
X4320000Y1860000D01*
X5280000D01*
X5353000Y1933000D01*
Y2560000D01*
G01X1480000Y1125000D02*
X2055000D01*
X2400000Y780000D01*
Y660000D01*
G01X1480000Y1800000D02*
X1625210D01*
G01X1480000Y1712200D02*
Y1800000D01*
G01D02*
Y1887800D01*
G01X1836000Y1364000D02*
Y1461800D01*
G01X1738200Y1364000D02*
X1836000D01*
G01D02*
X1933800D01*
G01X1755000Y2715000D02*
X1836000Y2634000D01*
G01D02*
Y2380000D01*
G01X3288000Y1313990D02*
X3149290Y1452700D01*
X2627300D01*
X2580000Y1500000D01*
Y1860000D01*
G01X2379930Y2319940D02*
X3170250D01*
X3180300Y2329990D01*
G01X3660000Y1080000D02*
X3639990Y1059990D01*
G01D02*
X3288000D01*
G01Y962190D02*
Y1059990D01*
G01D02*
Y1157790D01*
G01X3190200Y1059990D02*
X3288000D01*
G01X3930000Y870000D02*
X3990000Y930000D01*
Y1440000D01*
X3862010Y1567990D01*
X3288000D01*
G01X3325000Y2700000D02*
X3425000D01*
G01X3325000D02*
Y2474690D01*
G01X3180300Y2329990D02*
X3288000D01*
G01Y2437690D02*
Y2329990D01*
G01X3325000Y2474690D02*
X3288000Y2437690D01*
G01X3595000Y2700000D02*
X3695000D01*
G01X3055000D02*
X3155000D01*
G01X3840000Y1185000D02*
X3690010D01*
G01X3660000Y1080000D02*
Y810000D01*
X3690000Y780000D01*
X4020000D01*
X4090000Y850000D01*
Y2690000D01*
X4080000Y2700000D01*
G01X3690010Y1185000D02*
X3660000Y1154990D01*
Y1080000D01*
G01X3840000Y1185000D02*
Y1239800D01*
G01Y1185000D02*
X3908810D01*
G01X4080000Y2700000D02*
X3845000D01*
G01X5713000D02*
X4080000D01*
G01X5230000Y2080000D02*
X4790000D01*
X4770000Y2100000D01*
G01X5550000Y690000D02*
X5603000Y743000D01*
Y2560000D01*
G01X5853000D02*
X5713000Y2700000D01*
G01X5853000Y2462200D02*
Y2560000D01*
G01D02*
Y2657800D01*
G01X5755200Y2560000D02*
X5853000D01*
G01D02*
X5950800D01*
G54D13*
X480000Y990000D03*
X540000Y2100000D03*
X360000Y2040000D03*
Y2100000D03*
X450000D03*
Y2040000D03*
X300000Y2100000D03*
Y2040000D03*
X240000Y1980000D03*
X540000Y1860000D03*
Y2040000D03*
Y1680000D03*
X1230000Y1170000D03*
X1155000Y710000D03*
X690000Y1125000D03*
X880000Y2070000D03*
X840000Y1440000D03*
Y1680000D03*
X1350000Y2160000D03*
X2130000Y870000D03*
X2010000Y840000D03*
X1625210Y1800000D03*
X2070000Y1860000D03*
X2760000Y1320000D03*
X2190000Y660000D03*
X2880000Y1320000D03*
X2400000Y660000D03*
X2820000Y1800000D03*
X2400000Y1980000D03*
X2310000Y1470000D03*
X2580000Y1860000D03*
X2379930Y2319940D03*
X2970000Y930000D03*
X3120000D03*
X3000000Y1320000D03*
X3060000Y1800000D03*
X3120000Y1860000D03*
X2940000Y1800000D03*
X3120000Y1950000D03*
X3480000Y2430000D03*
X3540000Y2550000D03*
X3450000D03*
X3600000Y2430000D03*
X3630000Y2550000D03*
X2910000Y2700000D03*
X3930000Y870000D03*
X3840000Y1035000D03*
X3810000Y2580000D03*
X4380000Y2190000D03*
Y2730000D03*
X4320000Y2370000D03*
X4200000Y2730000D03*
X4020000D03*
X4320000Y2250000D03*
X4290000Y2730000D03*
X4110000D03*
X3720000Y2550000D03*
X3690000Y2430000D03*
X3810000D03*
X3900000D03*
X3990000D03*
X4170000Y2580000D03*
X4320000Y2610000D03*
X4770000Y2100000D03*
X4440000Y2130000D03*
X4560000Y2100000D03*
X4680000D03*
X4890000D03*
Y2730000D03*
X4560000Y2370000D03*
X4800000Y2250000D03*
X4440000Y2370000D03*
X4650000Y2730000D03*
X4470000D03*
X5130000D03*
X4680000Y2370000D03*
X4560000Y2730000D03*
X5010000D03*
X4770000D03*
X4800000Y2160000D03*
X4440000Y2610000D03*
X4590000D03*
X4710000Y2490000D03*
X5550000Y690000D03*
X5880000Y2130000D03*
X5230000Y2080000D03*
X5730000Y2730000D03*
X5850000D03*
X5610000D03*
X5250000D03*
X5490000D03*
X5370000D03*
X5970000Y2130000D03*
X6060000D03*
Y2250000D03*
Y2490000D03*
Y2640000D03*
X6030000Y2730000D03*
X6060000Y2370000D03*
G54D14*
X880000Y2070000D03*
G54D15*
X710000Y2685000D03*
Y2535000D03*
X1170000Y2565000D03*
Y2715000D03*
X1320000Y2565000D03*
Y2715000D03*
X710000Y2435000D03*
Y2265000D03*
X3840000Y1185000D03*
Y1035000D03*
G54D16*
X995000Y2280000D03*
X825000D03*
X3055000Y2700000D03*
X2905000D03*
X3595000D03*
X3425000D03*
X3155000D03*
X3325000D03*
X3695000D03*
X3845000D03*
G54D17*
X710000Y2760000D03*
G54D18*
X1836000Y1364000D03*
Y1872000D03*
Y2380000D03*
X3288000Y806000D03*
Y1059990D03*
Y1313990D03*
Y1567990D03*
Y1821990D03*
Y2075990D03*
X4551000Y849000D03*
X5853000Y2560000D03*
X5603000D03*
X5353000D03*
G54D19*
X3288000Y2329990D03*
X4551000Y1357000D03*
X5103000Y2560000D03*
M02*
